<svg x="0" y="0" width="48" height="48" version="1.1" xmlns="http://www.w3.org/2000/svg" xmlns:xlink="http://www.w3.org/1999/xlink"><defs><linearGradient x1="10.87641" y1="9.84611" x2="85.90367" y2="86.93397" gradientUnits="userSpaceOnUse" id="color-1"><stop offset="0" stop-color="#000000" stop-opacity="0.15"></stop><stop offset="1" stop-color="#000000" stop-opacity="0"></stop></linearGradient><filter id="dropshadow"><feColorMatrix type="matrix" values="0 0 0 0 .05  0 0 0 0 .15  0 0 0 0 .1  0 0 0 .8 0"></feColorMatrix> <feOffset dx="0" dy="1"></feOffset> <feGaussianBlur stdDeviation="1"></feGaussianBlur> <feComposite in="SourceGraphic"></feComposite></filter></defs><g fill="none" stroke="none" stroke-width="none" stroke-linecap="butt" stroke-linejoin="miter" stroke-miterlimit="none" stroke-dasharray="" stroke-dashoffset="0" font-family="none" font-weight="normal" font-size="none" text-anchor="start" mix-blend-mode="normal"><g id="svg4663" fill="#000000" stroke="none" stroke-width="1" stroke-miterlimit="4" font-family="&quot;Open Sans&quot;, sans-serif" font-size="14"></g><path d="M3,24c0,-11.59798 9.40202,-21 21,-21c11.59798,0 21,9.40202 21,21c0,11.59798 -9.40202,21 -21,21c-11.59798,0 -21,-9.40202 -21,-21z" fill="#373a3c" stroke-width="1" stroke-miterlimit="10" font-family="sans-serif" font-size="12" filter="url(#dropshadow)"></path><path d="M14.05047,30.55123l-0.81521,-0.81521c-0.36935,-0.62266 -0.51324,-1.37904 -0.32109,-2.13159c0,0 1.4575,1.4575 1.4575,1.4575c0,0 0.00001,0 0.00001,0l-1.4575,-1.4575c0,0 0.28428,-1.11329 0.28428,-1.11329l-2.32205,-2.32205l0.69879,-2.73656c0,0 4.6441,4.6441 4.6441,4.6441l0,-0.00001c0,0 -4.64409,-4.64409 -4.64409,-4.64409l2.73655,0.69879c0,0 0.28428,-1.11329 0.28428,-1.11329l-2.32204,-2.32204l0.00002,0l-0.00002,-0.00002l0.69879,-2.73656l0.00002,0.00002l2.73654,0.69878l0.69879,-2.73656c0.38433,-1.5051 1.93025,-2.4221 3.43535,-2.03777l2.73656,0.69879c0,0 0,0 0,0c0,0 0.69879,-2.73655 0.69879,-2.73655l2.73656,0.69879c0,0 2.32205,2.32205 2.32205,2.32205l0.4145,-1.62326l2.73656,0.69879l13.46508,13.46508c-0.69333,10.47647 -9.06955,18.85269 -19.54602,19.54602l-8.89603,-8.89603l0.17383,-0.68074l-3.47987,-3.47987c-0.17341,-0.17342 -0.32375,-0.36834 -0.44841,-0.57849z" fill="url(#color-1)" stroke-width="1" stroke-miterlimit="10" font-family="sans-serif" font-size="12"></path><path d="M32.82745,18.11436l-13.68279,-3.49393l-3.49393,13.68279l-2.41548,1.43281c-0.36935,-0.62266 -0.51325,-1.37904 -0.32108,-2.13159l0.69879,-2.73656l-2.73656,-0.69879l0.69879,-2.73656l2.73656,0.69879l0.69879,-2.73656l-2.73656,-0.69879l0.69879,-2.73656l2.73656,0.69879l0.69879,-2.73656c0.38433,-1.50511 1.93024,-2.4221 3.43534,-2.03777l2.73656,0.69879l0.69879,-2.73656l2.73656,0.69879l-0.69879,2.73656l2.73656,0.69879l0.69879,-2.73656l2.73656,0.69879l-0.69879,2.73656l2.73656,0.69879c0.75255,0.19217 1.34734,0.68109 1.71669,1.30375z M35.08582,20.39557l-0.69879,2.73656l2.73656,0.69879l-0.69879,2.73656l-2.73656,-0.69879l-0.69879,2.73656l2.73656,0.69879l-0.69879,2.73656l-2.73656,-0.69879l-0.69879,2.73656c-0.38433,1.50511 -1.93024,2.4221 -3.43534,2.03777l-2.73656,-0.69879l-0.69879,2.73656l-2.73656,-0.69879l0.69879,-2.73656l-2.73656,-0.69879l-0.69879,2.73656l-2.73656,-0.69879l0.69879,-2.73656l-2.73656,-0.69879c-0.75255,-0.19217 -1.34734,-0.68109 -1.71669,-1.30375l2.41548,-1.43281l13.68278,3.49393l3.49393,-13.68279l2.41548,-1.43281c0.36935,0.62266 0.51325,1.37904 0.32108,2.13159z M23.756,23.49535l-1.84673,-3.11328l-1.26655,4.96001l-2.41548,1.43281l2.44575,-9.57795l1.92414,0.49133l2.13329,3.59637l3.59637,-2.13329l1.92414,0.49133z M27.327,30.80306l-1.92414,-0.49133l1.75788,-6.88415l-3.60729,2.17605l-0.27564,-0.52585l6.49495,-3.85266z M19.6732,28.84865l-1.92414,-0.49133l2.41548,-1.43281z" fill="#ffffff" stroke-width="0" stroke-miterlimit="10" font-family="sans-serif" font-size="12"></path></g></svg>