<svg x="0" y="0" width="48" height="48" version="1.1" xmlns="http://www.w3.org/2000/svg" xmlns:xlink="http://www.w3.org/1999/xlink"><defs><linearGradient x1="11.68966" y1="12.92069" x2="57.52354" y2="56.29251" gradientUnits="userSpaceOnUse" id="color-1"><stop offset="0" stop-color="#000000" stop-opacity="0.2"></stop><stop offset="1" stop-color="#000000" stop-opacity="0"></stop></linearGradient><filter id="dropshadow"><feColorMatrix type="matrix" values="0 0 0 0 .05  0 0 0 0 .15  0 0 0 0 .1  0 0 0 .8 0"></feColorMatrix> <feOffset dx="0" dy="1"></feOffset> <feGaussianBlur stdDeviation="1"></feGaussianBlur> <feComposite in="SourceGraphic"></feComposite></filter></defs><g fill="none" stroke="none" stroke-width="none" stroke-linecap="butt" stroke-linejoin="miter" stroke-miterlimit="none" stroke-dasharray="" stroke-dashoffset="0" font-family="none" font-weight="normal" font-size="none" text-anchor="start" mix-blend-mode="normal"><g fill="#000000" stroke="none" stroke-width="1" stroke-miterlimit="4" font-family="&quot;Open Sans&quot;, sans-serif" font-size="14"></g><path d="M3,24c0,-11.59798 9.40202,-21 21,-21c11.59798,0 21,9.40202 21,21c0,11.59798 -9.40202,21 -21,21c-11.59798,0 -21,-9.40202 -21,-21z" fill="#373a3c" stroke-width="1" stroke-miterlimit="10" font-family="sans-serif" font-size="12" filter="url(#dropshadow)"></path><path d="M21.45807,44.84772l-9.76841,-9.76841l0,-22.15861l12.31034,0l0,-0.00001l4.92414,4.92414l7.3862,0l8.55413,8.55413c-1.19046,10.46827 -10.07771,18.60104 -20.86447,18.60104c-0.86038,0 -1.70867,-0.05174 -2.54193,-0.15228z" fill="url(#color-1)" stroke-width="1" stroke-miterlimit="10" font-family="sans-serif" font-size="12"></path><path d="M36.31034,17.84483l0,17.23447l-24.62068,0l0,-22.15861l12.31034,0l0,4.92414z M33.84827,20.3069l-9.84827,0l0,2.46207l2.46207,0l0,2.46207l-2.46207,0l0,2.46207l2.46207,0l0,2.46207l-2.46207,0l0,2.46207l9.84827,0z M31.3862,25.23103l-2.46207,0l0,-2.46207l2.46207,0z M31.3862,30.15517l-2.46207,0l0,-2.46207l2.46207,0z M16.6138,15.38276l-2.46207,0l0,2.46207l2.46207,0z M16.6138,30.15517l-2.46207,0l0,2.46207l2.46207,0z M16.6138,20.3069l-2.46207,0l0,2.46207l2.46207,0z M16.6138,25.23103l-2.46207,0l0,2.46207l2.46207,0z M21.53793,30.15517l-2.46207,0l0,2.46207l2.46207,0z M21.53793,20.3069l-2.46207,0l0,2.46207l2.46207,0z M21.53793,15.38276l-2.46207,0l0,2.46207l2.46207,0z M21.53793,25.23103l-2.46207,0l0,2.46207l2.46207,0z" fill="#ffffff" stroke="none" stroke-width="0" stroke-miterlimit="4" font-family="&quot;Open Sans&quot;, sans-serif" font-size="14"></path></g></svg>